<svg width="34" height="34" viewBox="0 0 34 34" fill="none" xmlns="http://www.w3.org/2000/svg">
<path opacity="0.6" d="M24.0825 21.25H29.4347C30.2167 21.25 30.8514 20.6153 30.8514 19.8333V9.37126C30.8514 8.58926 30.2167 7.95459 29.4347 7.95459H24.0825" stroke="#EC7000" stroke-width="2.19141" stroke-linecap="round" stroke-linejoin="round"/>
<path opacity="0.6" d="M8.97191 5.66699H5.87366C4.19491 5.66699 2.8335 7.02841 2.8335 8.70716V28.1282C2.8335 29.8056 4.19491 31.167 5.87366 31.167H18.2114C19.8887 31.167 21.2502 29.8056 21.2502 28.1268V8.70716C21.2502 7.02841 19.8887 5.66699 18.21 5.66699H15.1103" stroke="#EC7000" stroke-width="2.19141" stroke-linecap="round" stroke-linejoin="round"/>
<path d="M16.6444 22.4302C16.5028 22.4302 16.388 22.5365 16.3894 22.6668C16.3894 22.7972 16.5042 22.9034 16.6458 22.9034C16.7875 22.9034 16.9023 22.7972 16.9023 22.6668C16.9023 22.5365 16.7875 22.4302 16.6444 22.4302" stroke="#EC7000" stroke-width="2.19141" stroke-linecap="round" stroke-linejoin="round"/>
<path d="M7.4369 22.4302C7.29524 22.4302 7.18049 22.5365 7.1819 22.6668C7.1819 22.7972 7.29665 22.9034 7.43832 22.9034C7.57999 22.9034 7.69474 22.7972 7.69474 22.6668C7.69474 22.5365 7.57999 22.4302 7.4369 22.4302" stroke="#EC7000" stroke-width="2.19141" stroke-linecap="round" stroke-linejoin="round"/>
<path d="M2.8335 12.7498H21.2502" stroke="#EC7000" stroke-width="2.19141" stroke-linecap="round" stroke-linejoin="round"/>
<path d="M21.2502 18.4163H2.8335" stroke="#EC7000" stroke-width="2.19141" stroke-linecap="round" stroke-linejoin="round"/>
<path d="M12.0409 22.4302C11.8992 22.4302 11.7845 22.5365 11.7859 22.6668C11.7859 22.7972 11.9007 22.9034 12.0423 22.9034C12.184 22.9034 12.2987 22.7972 12.2987 22.6668C12.2987 22.5365 12.184 22.4302 12.0409 22.4302" stroke="#EC7000" stroke-width="2.19141" stroke-linecap="round" stroke-linejoin="round"/>
<path d="M16.6444 26.6802C16.5028 26.6802 16.388 26.7865 16.3894 26.9168C16.3894 27.0472 16.5042 27.1534 16.6458 27.1534C16.7875 27.1534 16.9023 27.0472 16.9023 26.9168C16.9023 26.7865 16.7875 26.6802 16.6444 26.6802" stroke="#EC7000" stroke-width="2.19141" stroke-linecap="round" stroke-linejoin="round"/>
<path d="M7.4369 26.6802C7.29524 26.6802 7.18049 26.7865 7.1819 26.9168C7.1819 27.0472 7.29665 27.1534 7.43832 27.1534C7.57999 27.1534 7.69474 27.0472 7.69474 26.9168C7.69474 26.7865 7.57999 26.6802 7.4369 26.6802" stroke="#EC7000" stroke-width="2.19141" stroke-linecap="round" stroke-linejoin="round"/>
<path d="M12.0409 26.6802C11.8992 26.6802 11.7845 26.7865 11.7859 26.9168C11.7859 27.0472 11.9007 27.1534 12.0423 27.1534C12.184 27.1534 12.2987 27.0472 12.2987 26.9168C12.2987 26.7865 12.184 26.6802 12.0409 26.6802" stroke="#EC7000" stroke-width="2.19141" stroke-linecap="round" stroke-linejoin="round"/>
<path fill-rule="evenodd" clip-rule="evenodd" d="M8.97119 2.8335H15.1096V8.50016H8.97119V2.8335Z" stroke="#EC7000" stroke-width="2.19141" stroke-linecap="round" stroke-linejoin="round"/>
<path d="M29.042 27.625L26.917 29.75L24.792 27.625" stroke="#EC7000" stroke-width="2.19141" stroke-linecap="round" stroke-linejoin="round"/>
<path d="M26.9168 25.5V29.75" stroke="#EC7000" stroke-width="2.19141" stroke-linecap="round" stroke-linejoin="round"/>
<path d="M26.9168 21.2498V7.94727" stroke="#EC7000" stroke-width="2.19141" stroke-linecap="round" stroke-linejoin="round"/>
</svg>
