<svg width="32" height="32" viewBox="0 0 32 32" fill="none" xmlns="http://www.w3.org/2000/svg">
<path d="M26.6667 26.6662V13.0396" stroke="#EC7000" stroke-width="2" stroke-linecap="round" stroke-linejoin="round"/>
<path opacity="0.6" fill-rule="evenodd" clip-rule="evenodd" d="M5.73444 13.0372C3.47044 13.0212 1.99444 10.7798 2.97577 8.84784L5.26377 4.34517C5.78377 3.3185 6.87977 2.6665 8.08244 2.6665H23.9171C25.1198 2.6665 26.2158 3.3185 26.7371 4.34517L29.0251 8.84784C30.0064 10.7798 28.5304 13.0212 26.2664 13.0372C24.3771 13.0372 22.8451 11.7465 22.8451 10.1532V10.0892C22.8451 11.7172 21.3131 13.0372 19.4238 13.0372C17.5318 13.0372 15.9998 11.7172 15.9998 10.0892C15.9998 11.7172 14.4678 13.0372 12.5784 13.0372C10.6891 13.0372 9.15711 11.7172 9.15711 10.0892V10.1532C9.15577 11.7465 7.62377 13.0372 5.73444 13.0372Z" stroke="#EC7000" stroke-width="2" stroke-linecap="round" stroke-linejoin="round"/>
<path d="M18.667 26.6667H28.0003" stroke="#EC7000" stroke-width="2" stroke-linecap="round" stroke-linejoin="round"/>
<path fill-rule="evenodd" clip-rule="evenodd" d="M9.5336 19.5347C9.9576 19.0574 10.6883 18.52 11.8043 18.52C13.7536 18.52 15.0643 20.2854 15.0643 21.9294C15.0629 25.3667 10.6269 28 9.5336 28C8.44026 28 4.00293 25.3667 4.00293 21.9294C4.00293 20.284 5.31093 18.52 7.26293 18.52C8.3776 18.52 9.1096 19.0574 9.5336 19.5347Z" stroke="#EC7000" stroke-width="2" stroke-linecap="round" stroke-linejoin="round"/>
</svg>
