<svg width="32" height="32" viewBox="0 0 32 32" fill="none" xmlns="http://www.w3.org/2000/svg">
<path opacity="0.6" d="M26.6667 14.6667V6.36533V6.36533C26.6667 5.05867 25.608 4 24.3013 4H6.36533C5.05867 4 4 5.05867 4 6.36533V24.3013C4 25.608 5.05867 26.6667 6.36533 26.6667H12" stroke="#EC7000" stroke-width="2" stroke-linecap="round" stroke-linejoin="round"/>
<path d="M9.40267 15.2642C9.53333 15.3948 9.53333 15.6055 9.40267 15.7362C9.272 15.8668 9.06133 15.8668 8.93067 15.7362C8.8 15.6055 8.8 15.3948 8.93067 15.2642C9.06133 15.1348 9.272 15.1348 9.40267 15.2642" stroke="#EC7000" stroke-width="2" stroke-linecap="round" stroke-linejoin="round"/>
<path d="M21.6867 9.50016H14.6733" stroke="#EC7000" stroke-width="2" stroke-linecap="round" stroke-linejoin="round"/>
<path d="M9.40267 9.26831C9.53333 9.39897 9.53333 9.60964 9.40267 9.74031C9.272 9.87097 9.06133 9.87097 8.93067 9.74031C8.8 9.60964 8.8 9.39897 8.93067 9.26831C9.06133 9.13764 9.272 9.13897 9.40267 9.26831" stroke="#EC7000" stroke-width="2" stroke-linecap="round" stroke-linejoin="round"/>
<path d="M21.6867 15.5002H14.6733" stroke="#EC7000" stroke-width="2" stroke-linecap="round" stroke-linejoin="round"/>
<path opacity="0.6" fill-rule="evenodd" clip-rule="evenodd" d="M16.3335 22.3333V27C16.3335 28.288 17.3788 29.3333 18.6668 29.3333H25.6668C26.9548 29.3333 28.0002 28.288 28.0002 27V22.3333C28.0002 21.0453 26.9548 20 25.6668 20H18.6668C17.3788 20 16.3335 21.0453 16.3335 22.3333Z" stroke="#EC7000" stroke-width="2" stroke-linecap="round" stroke-linejoin="round"/>
<path d="M28.0002 24.2292H16.3335" stroke="#EC7000" stroke-width="2" stroke-linecap="round" stroke-linejoin="round"/>
</svg>
