<svg width="33" height="34" viewBox="0 0 33 34" fill="none" xmlns="http://www.w3.org/2000/svg">
<path fill-rule="evenodd" clip-rule="evenodd" d="M13.9984 12.1998H7.20156C6.31836 12.1998 5.60156 11.483 5.60156 10.5998V7.3998C5.60156 6.5166 6.31836 5.7998 7.20156 5.7998H13.9984C14.8816 5.7998 15.5984 6.5166 15.5984 7.3998V10.5998C15.5984 11.483 14.8816 12.1998 13.9984 12.1998Z" stroke="#F68118" stroke-width="2" stroke-linecap="round" stroke-linejoin="round"/>
<path d="M24.9995 7.92188V7.92188C26.1707 9.09308 26.1707 10.9923 24.9995 12.1651V12.1651" stroke="#F68118" stroke-width="2" stroke-linecap="round" stroke-linejoin="round"/>
<path opacity="0.6" d="M29.9512 5.7998C32.2936 8.1422 32.2936 11.9422 29.9512 14.2846" stroke="#F68118" stroke-width="2" stroke-linecap="round" stroke-linejoin="round"/>
<path opacity="0.6" fill-rule="evenodd" clip-rule="evenodd" d="M26.5996 32.9998H12.1996C11.3164 32.9998 10.5996 32.283 10.5996 31.3998V23.3998C10.5996 22.5166 11.3164 21.7998 12.1996 21.7998H26.5996C27.4828 21.7998 28.1996 22.5166 28.1996 23.3998V31.3998C28.1996 32.283 27.4828 32.9998 26.5996 32.9998Z" stroke="#F68118" stroke-width="2" stroke-linecap="round" stroke-linejoin="round"/>
<path opacity="0.6" d="M20.2 21.8V4.2C20.2 2.432 18.768 1 17 1H4.2C2.432 1 1 2.432 1 4.2V23.4C1 25.168 2.432 26.6 4.2 26.6H10.6" stroke="#F68118" stroke-width="2" stroke-linecap="round" stroke-linejoin="round"/>
<path d="M10.5996 26.5998H28.1996" stroke="#F68118" stroke-width="2" stroke-linecap="round" stroke-linejoin="round"/>
<path d="M5.8 16.9839C5.7952 16.9839 5.792 16.9871 5.792 16.9919C5.792 16.9967 5.7952 16.9999 5.8 16.9999C5.8048 16.9999 5.808 16.9967 5.808 16.9919C5.808 16.9871 5.8048 16.9839 5.8 16.9839" stroke="#F68118" stroke-width="2" stroke-linecap="round" stroke-linejoin="round"/>
<path d="M10.5998 17C10.595 17 10.5918 17.0032 10.5918 17.008C10.5918 17.0128 10.595 17.016 10.5998 17.016C10.6046 17.016 10.6078 17.0128 10.6078 17.008C10.6078 17.0032 10.6046 17 10.5998 17" stroke="#F68118" stroke-width="2" stroke-linecap="round" stroke-linejoin="round"/>
<path d="M15.4074 16.9922C15.4026 16.9922 15.3994 16.9954 15.3994 17.0002C15.3994 17.005 15.4026 17.0082 15.4074 17.0082C15.4122 17.0082 15.4154 17.005 15.4154 17.0002C15.4154 16.9954 15.4122 16.9922 15.4074 16.9922" stroke="#F68118" stroke-width="2" stroke-linecap="round" stroke-linejoin="round"/>
</svg>
