<svg width="20" height="20" viewBox="0 0 20 20" fill="none" xmlns="http://www.w3.org/2000/svg">
<path opacity="0.4" fill-rule="evenodd" clip-rule="evenodd" d="M10 19C14.9706 19 19 14.9706 19 10C19 5.02944 14.9706 1 10 1C5.02944 1 1 5.02944 1 10C1 14.9706 5.02944 19 10 19Z" stroke="#00A3A3" stroke-width="1.5" stroke-linecap="round" stroke-linejoin="round"/>
<path d="M5 8.852C6.23 7.718 8.011 7 10 7C11.989 7 13.77 7.718 15 8.852" stroke="#00A3A3" stroke-width="1.5" stroke-linecap="round" stroke-linejoin="round"/>
<path d="M6.66797 10.8893C7.48797 10.2093 8.67497 9.77832 10.001 9.77832C11.327 9.77832 12.514 10.2093 13.334 10.8893" stroke="#00A3A3" stroke-width="1.5" stroke-linecap="round" stroke-linejoin="round"/>
<path d="M8.33301 13.0002C8.74301 12.6602 9.33701 12.4442 10 12.4442C10.663 12.4442 11.257 12.6592 11.667 13.0002" stroke="#00A3A3" stroke-width="1.5" stroke-linecap="round" stroke-linejoin="round"/>
</svg>
