<svg width="24" height="24" viewBox="0 0 24 24" fill="none" xmlns="http://www.w3.org/2000/svg">
<path opacity="0.4" d="M4.85498 4.85498L6.27057 6.27057" stroke="#7B7775" stroke-width="1.5" stroke-linecap="round" stroke-linejoin="round"/>
<path opacity="0.4" d="M10.0905 2.99658V4.99742" stroke="#7B7775" stroke-width="1.5" stroke-linecap="round" stroke-linejoin="round"/>
<path opacity="0.4" d="M4.99742 10.0905H2.99658" stroke="#7B7775" stroke-width="1.5" stroke-linecap="round" stroke-linejoin="round"/>
<path opacity="0.4" d="M19.1451 19.1451L17.7295 17.7295" stroke="#7B7775" stroke-width="1.5" stroke-linecap="round" stroke-linejoin="round"/>
<path opacity="0.4" d="M13.9099 21.0038V19.0029" stroke="#7B7775" stroke-width="1.5" stroke-linecap="round" stroke-linejoin="round"/>
<path opacity="0.4" d="M19.0029 13.9099H21.0038" stroke="#7B7775" stroke-width="1.5" stroke-linecap="round" stroke-linejoin="round"/>
<path d="M12.0003 17.0021L10.4997 18.5027C9.83645 19.1662 8.93677 19.5389 7.99865 19.5389C7.06054 19.5389 6.16086 19.1662 5.49761 18.5027V18.5027C4.83416 17.8395 4.46143 16.9398 4.46143 16.0017C4.46143 15.0636 4.83416 14.1639 5.49761 13.5006L6.99824 12" stroke="#7B7775" stroke-width="1.5" stroke-linecap="round" stroke-linejoin="round"/>
<path d="M12 6.99824L13.5006 5.49761C14.1639 4.83416 15.0636 4.46143 16.0017 4.46143C16.9398 4.46143 17.8395 4.83416 18.5027 5.49761V5.49761C19.1662 6.16086 19.5389 7.06054 19.5389 7.99865C19.5389 8.93677 19.1662 9.83645 18.5027 10.4997L17.0021 12.0003" stroke="#7B7775" stroke-width="1.5" stroke-linecap="round" stroke-linejoin="round"/>
</svg>
