<svg width="20" height="20" viewBox="0 0 20 20" fill="none" xmlns="http://www.w3.org/2000/svg">
<path opacity="0.4" fill-rule="evenodd" clip-rule="evenodd" d="M10 19C14.9706 19 19 14.9706 19 10C19 5.02944 14.9706 1 10 1C5.02944 1 1 5.02944 1 10C1 14.9706 5.02944 19 10 19Z" stroke="#7B7775" stroke-width="1.5" stroke-linecap="round" stroke-linejoin="round"/>
<path d="M4.99951 8.852C6.22951 7.718 8.01051 7 9.99951 7C11.9885 7 13.7695 7.718 14.9995 8.852" stroke="#7B7775" stroke-width="1.5" stroke-linecap="round" stroke-linejoin="round"/>
<path d="M6.66846 10.8893C7.48846 10.2093 8.67546 9.77832 10.0015 9.77832C11.3275 9.77832 12.5145 10.2093 13.3345 10.8893" stroke="#7B7775" stroke-width="1.5" stroke-linecap="round" stroke-linejoin="round"/>
<path d="M8.33301 13.0002C8.74301 12.6602 9.33701 12.4442 10 12.4442C10.663 12.4442 11.257 12.6592 11.667 13.0002" stroke="#7B7775" stroke-width="1.5" stroke-linecap="round" stroke-linejoin="round"/>
</svg>
