<svg width="20" height="20" viewBox="0 0 20 20" fill="none" xmlns="http://www.w3.org/2000/svg">
<path opacity="0.7" fill-rule="evenodd" clip-rule="evenodd" d="M15.96 3.76254C14.314 2.11554 12.125 1.20754 9.793 1.20654C4.986 1.20654 1.075 5.11554 1.074 9.92054C1.072 11.4495 1.473 12.9525 2.237 14.2775L1 18.7935L5.622 17.5815C6.901 18.2775 8.333 18.6425 9.789 18.6425H9.793C14.598 18.6425 18.509 14.7325 18.511 9.92754C18.512 7.59954 17.606 5.41054 15.96 3.76254Z" stroke="#F68118" stroke-width="2" stroke-linecap="round" stroke-linejoin="round"/>
<path d="M10.8516 11.5604L11.2576 11.1574C11.6306 10.7874 12.2206 10.7404 12.6506 11.0424C13.0666 11.3344 13.4426 11.5964 13.7926 11.8404C14.3486 12.2264 14.4156 13.0184 13.9366 13.4964L13.5776 13.8554" stroke="#F68118" stroke-width="2" stroke-linecap="round" stroke-linejoin="round"/>
<path d="M5.90039 6.17938L6.25939 5.82038C6.73739 5.34238 7.52939 5.40938 7.91539 5.96438C8.15839 6.31438 8.42039 6.69038 8.71339 7.10638C9.01539 7.53638 8.96939 8.12638 8.59839 8.49938L8.19539 8.90538" stroke="#F68118" stroke-width="2" stroke-linecap="round" stroke-linejoin="round"/>
<path d="M13.5776 13.8553C12.0966 15.3293 9.60758 14.0773 7.64258 12.1113" stroke="#F68118" stroke-width="2" stroke-linecap="round" stroke-linejoin="round"/>
<path d="M7.64393 12.1142C5.67893 10.1482 4.42693 7.6602 5.90093 6.1792" stroke="#F68118" stroke-width="2" stroke-linecap="round" stroke-linejoin="round"/>
<path d="M8.19531 8.90527C8.51431 9.40827 8.92331 9.90627 9.38531 10.3683L9.38731 10.3703C9.84931 10.8323 10.3473 11.2413 10.8503 11.5603" stroke="#F68118" stroke-width="2" stroke-linecap="round" stroke-linejoin="round"/>
</svg>
